<?xml version="1.0" standalone="no"?>
<!DOCTYPE svg PUBLIC "-//W3C//DTD SVG 20010904//EN"
 "http://www.w3.org/TR/2001/REC-SVG-20010904/DTD/svg10.dtd">
<svg version="1.0" xmlns="http://www.w3.org/2000/svg"
 width="500.000000pt" height="500.000000pt" viewBox="0 0 500.000000 500.000000"
 preserveAspectRatio="xMidYMid meet">

<g transform="translate(0.000000,500.000000) scale(0.100000,-0.100000)"
fill="#000000" stroke="none">
<path d="M1802 4223 c-13 -9 -43 -44 -67 -77 -113 -160 -190 -392 -214 -642
-9 -96 -11 -104 -55 -172 -86 -133 -125 -245 -133 -387 -9 -162 33 -286 145
-427 l62 -77 -44 -108 c-35 -87 -47 -108 -62 -106 -11 2 -50 8 -89 14 -145 24
-317 -4 -443 -72 -41 -21 -75 -39 -78 -39 -2 0 -5 78 -6 173 l-3 172 -297 3
-296 2 -6 -102 c-3 -57 -10 -285 -16 -508 -5 -223 -13 -476 -16 -562 l-7 -158
337 0 336 0 0 40 0 40 48 -23 c26 -13 67 -29 92 -35 28 -7 276 -13 648 -18
l602 -7 0 47 c0 25 2 46 5 46 3 0 28 -11 55 -25 28 -14 80 -32 116 -41 87 -20
289 -20 367 1 87 23 237 100 237 123 0 19 8 15 58 -27 61 -50 136 -87 214
-106 83 -19 267 -19 341 0 61 16 171 67 182 85 4 7 11 8 18 1 18 -14 204 -68
298 -86 102 -19 273 -19 364 0 148 31 253 109 294 220 19 49 19 71 14 410 l-6
357 -43 18 c-67 29 -170 58 -268 75 -228 39 -439 -5 -554 -117 l-42 -40 -45
36 c-24 20 -63 47 -86 60 -38 22 -44 32 -88 143 l-47 119 45 51 c117 131 183
315 166 463 -15 129 -76 289 -153 402 -24 36 -30 57 -36 128 -24 288 -150 617
-277 724 -38 32 -51 31 -154 -18 -86 -41 -194 -117 -277 -195 l-63 -59 -65 15
c-84 19 -360 19 -450 1 l-65 -14 -80 70 c-99 85 -227 170 -305 202 -69 28 -77
28 -108 7z m124 -73 c67 -36 159 -100 246 -172 l61 -51 -54 -21 c-72 -27 -41
-31 81 -11 146 25 420 30 565 11 66 -9 140 -19 165 -21 l45 -5 -47 22 c-27 12
-48 25 -48 28 0 26 305 236 357 246 44 8 61 -11 131 -146 84 -160 138 -339
163 -537 11 -91 15 -103 55 -159 103 -144 149 -287 141 -434 -7 -137 -55 -252
-155 -369 l-30 -35 -23 55 c-42 98 -117 243 -142 277 -64 85 -147 108 -188 52
l-22 -29 -29 24 c-17 14 -42 25 -59 25 -29 0 -69 -30 -69 -52 0 -9 -3 -9 -12
0 -15 15 -63 16 -90 1 -28 -15 -58 -86 -58 -139 0 -25 18 -169 40 -320 22
-151 40 -279 40 -284 0 -4 -16 6 -35 22 -91 80 -218 122 -369 122 -119 0 -215
-21 -299 -65 -37 -19 -70 -35 -72 -35 -3 0 -5 18 -5 39 0 22 -4 41 -8 43 -5 2
4 89 20 193 31 216 37 329 18 365 -33 64 -81 86 -131 60 -14 -8 -19 -7 -19 1
0 21 -32 49 -57 49 -29 0 -83 -26 -83 -40 0 -6 -4 -10 -10 -10 -5 0 -10 5 -10
12 0 27 -33 48 -77 48 -69 0 -125 -63 -207 -232 -35 -73 -67 -144 -71 -156
l-7 -24 -25 24 c-35 32 -105 143 -132 205 -59 143 -47 317 33 478 24 50 62
114 84 142 35 47 40 61 45 125 7 99 32 212 73 340 58 179 162 368 203 368 10
0 45 -14 77 -30z m-27 -1326 c11 -14 22 -30 24 -37 2 -7 16 1 35 21 25 27 38
33 64 30 30 -3 33 -6 36 -41 l3 -38 30 26 c48 40 89 33 109 -20 12 -32 11 -43
-22 -258 l-21 -138 -19 33 c-55 92 -134 138 -238 138 -153 0 -270 -118 -270
-272 0 -26 -4 -38 -14 -38 -9 0 -16 -16 -20 -44 l-7 -44 -39 26 c-22 14 -40
28 -40 31 0 19 107 300 162 426 85 193 171 270 227 199z m1481 -13 c20 -21 57
-78 82 -127 45 -89 183 -433 176 -440 -2 -2 -22 1 -44 7 -60 17 -267 5 -335
-19 -73 -26 -116 -48 -162 -85 -21 -16 -39 -28 -41 -26 -2 2 -25 130 -51 283
-59 347 -56 406 15 406 19 0 37 -10 54 -31 l26 -31 0 27 c0 71 51 86 106 31
34 -34 34 -34 45 -13 36 69 75 75 129 18z m-1425 -415 c98 -41 99 -193 2 -239
-43 -21 -67 -21 -112 -3 -97 41 -99 199 -2 241 41 18 69 18 112 1z m-1271
-118 c6 -78 26 -794 26 -915 l0 -73 -195 0 -195 0 0 28 c0 15 7 243 15 507 8
264 15 490 15 503 0 22 1 22 164 22 l164 0 6 -72z m2068 -188 c75 -28 121 -63
157 -116 41 -62 60 -129 68 -235 l6 -86 -44 -6 c-35 -5 -256 -21 -304 -22 -5
0 -12 16 -15 35 -4 30 -9 35 -35 38 -35 4 -55 -18 -55 -61 0 -42 16 -64 57
-78 43 -14 160 -6 243 16 30 8 56 15 58 15 1 0 2 -51 2 -113 l0 -113 -54 -26
c-77 -38 -160 -52 -274 -45 -116 6 -186 26 -244 70 -107 82 -143 172 -142 352
0 101 4 129 24 179 44 115 150 194 287 216 80 12 204 3 265 -20z m843 16 c70
-18 111 -41 168 -94 184 -173 163 -527 -38 -660 -81 -54 -136 -67 -270 -66
-99 0 -130 4 -175 22 -163 64 -234 183 -234 392 0 125 23 208 82 284 40 53
117 102 191 122 62 17 214 17 276 0z m920 -5 c50 -10 102 -24 118 -30 l27 -11
0 -164 0 -165 -41 14 c-57 20 -211 37 -223 25 -14 -14 -2 -22 52 -31 127 -20
184 -50 212 -112 43 -94 12 -226 -66 -279 -113 -77 -321 -87 -546 -27 l-78 21
0 142 0 142 71 -18 c97 -24 194 -34 203 -19 9 13 -19 25 -96 41 -73 15 -145
63 -172 115 -28 55 -28 165 1 220 36 69 112 123 200 144 69 16 242 12 338 -8z
m-3126 -10 c107 -33 189 -110 228 -214 13 -35 15 -87 14 -297 -1 -140 -4 -263
-7 -272 -5 -16 -20 -18 -139 -18 -147 0 -145 -1 -145 74 l0 28 -38 -34 c-59
-53 -118 -72 -206 -65 -139 10 -238 80 -287 203 -20 52 -23 76 -24 194 0 128
1 138 29 197 30 66 96 137 157 169 105 55 301 71 418 35z m694 -123 c4 -68 10
-248 13 -400 l7 -278 -203 0 -202 0 6 78 c3 42 8 176 11 297 3 121 8 266 11
323 l6 102 173 0 172 0 6 -122z"/>
<path d="M1836 4018 c-37 -56 -72 -225 -60 -286 5 -23 -2 -42 -33 -88 -37 -55
-73 -131 -73 -155 0 -6 27 24 61 65 33 42 70 84 82 93 20 17 22 27 23 143 1
69 6 152 12 184 13 67 10 78 -12 44z"/>
<path d="M3304 4010 c4 -19 9 -106 13 -192 3 -87 9 -158 14 -158 4 0 40 -39
78 -86 39 -47 71 -79 71 -72 0 20 -49 119 -76 155 -21 28 -25 45 -28 125 -4
96 -32 205 -62 243 -15 19 -16 18 -10 -15z"/>
<path d="M1955 3530 c-4 -6 -2 -17 5 -25 9 -10 7 -16 -6 -23 -28 -15 -8 -29
68 -47 40 -10 77 -20 82 -23 4 -2 -23 -18 -60 -35 -38 -16 -79 -37 -92 -45
-24 -16 -26 -49 -1 -44 9 2 6 -5 -8 -20 -29 -31 -30 -58 -2 -58 51 0 339 131
374 170 10 11 15 26 11 35 -8 21 -113 68 -222 100 -92 27 -139 31 -149 15z"/>
<path d="M3083 3520 c-80 -21 -207 -72 -238 -96 -20 -15 -19 -16 23 -54 41
-37 219 -120 321 -151 57 -17 71 -2 36 40 -26 30 -26 31 -6 31 53 0 9 39 -95
84 -45 20 -73 37 -64 40 8 3 46 13 84 24 64 17 100 42 62 42 -19 0 -21 11 -5
27 16 16 2 33 -24 32 -12 0 -54 -9 -94 -19z"/>
<path d="M2515 3270 c-53 -46 -74 -46 -113 -3 l-23 26 -37 -30 c-20 -17 -48
-52 -62 -79 -21 -41 -25 -62 -25 -139 0 -99 17 -146 72 -196 89 -83 262 -110
405 -63 65 21 142 92 165 152 41 107 11 245 -70 318 -39 36 -40 36 -56 16 -9
-11 -26 -25 -38 -31 -27 -14 -64 2 -102 43 -34 36 -62 33 -116 -14z"/>
<path d="M3416 1679 c-32 -25 -34 -66 -5 -103 42 -54 129 -19 129 51 0 36 -38
73 -75 73 -12 0 -34 -9 -49 -21z m102 -34 c8 -17 7 -28 -4 -44 -26 -37 -49
-43 -78 -20 -33 26 -34 62 0 88 20 16 30 18 49 9 12 -5 27 -20 33 -33z"/>
<path d="M1137 1682 c-21 -23 -22 -86 -1 -106 22 -22 87 -21 107 2 23 25 21
78 -3 102 -26 26 -81 26 -103 2z m90 -14 c28 -26 29 -52 3 -78 -24 -24 -57
-26 -82 -3 -24 21 -23 58 2 83 26 26 48 25 77 -2z"/>
<path d="M1183 3833 c-28 -11 -8 -35 104 -132 112 -97 150 -117 160 -85 4 11
-231 225 -245 223 -4 0 -13 -3 -19 -6z"/>
<path d="M1023 3633 c-35 -14 -2 -33 130 -76 181 -59 200 -63 216 -44 6 8 8
17 4 20 -11 7 -326 107 -332 106 -3 0 -12 -3 -18 -6z"/>
<path d="M1240 3391 c-118 -33 -130 -38 -130 -51 0 -16 38 -11 148 19 110 30
118 34 107 50 -8 14 -13 14 -125 -18z"/>
</g>
</svg>
