<?xml version="1.0" encoding="UTF-8"?>
<svg version="1.1" xmlns="http://www.w3.org/2000/svg" width="500" height="500">
<path d="M0 0 C165 0 330 0 500 0 C500 165 500 330 500 500 C335 500 170 500 0 500 C0 335 0 170 0 0 Z " fill="#000000" transform="translate(0,0)"/>
<path d="M0 0 C15.8936542 13.41134812 23.20600402 46.41643668 25.21875 66.14404297 C25.2703125 66.80678223 25.321875 67.46952148 25.375 68.15234375 C26.09095249 76.82431826 28.50354139 82.12003189 33.6796875 88.87890625 C41.77779762 99.77181869 45.22222603 111.29471185 45.3125 124.6875 C45.32095947 125.88161499 45.32095947 125.88161499 45.32958984 127.09985352 C45.12722888 143.60256175 37.48697038 156.69005485 26 168 C25.59910156 167.11441406 25.19820312 166.22882813 24.78515625 165.31640625 C21.48049777 158.08487325 18.03391002 150.93438976 14.375 143.875 C14.01543213 143.16545166 13.65586426 142.45590332 13.28540039 141.72485352 C11.03541782 137.44216685 8.62763485 134.28849035 5 131 C4.401875 130.401875 3.80375 129.80375 3.1875 129.1875 C-0.13738969 127.38255988 -3.36768831 127.194418 -7 128 C-10.00333267 130.33336666 -10.00333267 130.33336666 -12 133 C-12.680625 132.34 -13.36125 131.68 -14.0625 131 C-17.74376653 128.49360577 -19.62901047 128.28474717 -24 129 C-26.47208796 131.35832772 -26.47208796 131.35832772 -28 134 C-28.33 133.67 -28.66 133.34 -29 133 C-32.15002222 132.52749667 -33.9925552 132.25379189 -37 133 C-40.34572723 135.70844585 -41.77139547 139.23743102 -42.31835938 143.45458984 C-42.42461576 155.25109236 -40.30564345 166.81334571 -38.5 178.4375 C-37.9971632 181.71172445 -37.49713791 184.9863249 -37.0020752 188.26173401 C-36.69540356 190.28701311 -36.38403434 192.31158824 -36.06726074 194.33531189 C-35.3652584 198.93659016 -34.80857435 203.32813981 -35 208 C-35.46148437 207.62488281 -35.92296875 207.24976563 -36.3984375 206.86328125 C-51.88365258 194.71381408 -68.91037739 192.38490446 -88.07421875 194.30859375 C-96.94000583 195.92185291 -105.36707879 199.2506268 -113 204 C-113 201.03 -113 198.06 -113 195 C-113.66 195 -114.32 195 -115 195 C-114.91959473 194.41734375 -114.83918945 193.8346875 -114.75634766 193.234375 C-114.09790945 188.45529715 -113.44543479 183.6754893 -112.80078125 178.89453125 C-112.33647307 175.45160071 -111.85960712 172.0115258 -111.35546875 168.57421875 C-110.39161227 161.67467053 -109.76557181 154.83668716 -109.625 147.875 C-109.59897705 147.17592529 -109.5729541 146.47685059 -109.54614258 145.7565918 C-109.5283867 140.70473763 -110.89327043 137.91614571 -114 134 C-115.16247951 132.61070346 -115.16247951 132.61070346 -118.375 132.875 C-121.95322972 132.82699539 -121.95322972 132.82699539 -125 134 C-125.37125 133.175 -125.7425 132.35 -126.125 131.5 C-127.78183897 128.68073782 -127.78183897 128.68073782 -130.9375 128.5625 C-133.80606834 128.97229548 -135.60670741 129.40447161 -138 131 C-138.33 131.66 -138.66 132.32 -139 133 C-139.66 133 -140.32 133 -141 133 C-141.350625 132.175 -141.70125 131.35 -142.0625 130.5 C-143.69876713 127.87489737 -143.69876713 127.87489737 -145.94921875 127.45703125 C-150.06189078 127.19868004 -153.2157594 127.63994893 -156.5625 130.125 C-166.47915874 139.97326799 -171.55017402 155.42201477 -177 168 C-188.2186269 158.91583881 -194.79622243 146.35794477 -197 132 C-198.36169719 113.27108294 -192.34249781 96.08137066 -180.3828125 81.57421875 C-179.61115712 80.69575232 -178.82678754 79.82678754 -178 79 C-177.82225817 76.99130322 -177.65056927 74.98191015 -177.50732422 72.97045898 C-175.84419801 50.81419992 -169.33953202 29.15120963 -158 10 C-157.505 10.99 -157.505 10.99 -157 12 C-157.63671875 13.890625 -157.63671875 13.890625 -158.6875 16.25 C-164.86715392 31.13638282 -170.1753101 50.09975343 -170 66.33984375 C-169.91654996 78.45705105 -169.91654996 78.45705105 -172.75 82.4921875 C-175 84.3125 -175 84.3125 -177.44140625 86.01171875 C-180.64313309 88.49977824 -182.67445339 91.29334427 -184.9375 94.625 C-185.66839844 95.68976563 -186.39929688 96.75453125 -187.15234375 97.8515625 C-188.92309532 100.86895312 -190.0384632 103.64720677 -191 107 C-175.46325868 117.62135634 -156.51516814 118.19981486 -138.32421875 114.89453125 C-129.63991753 112.55762763 -120.85750966 109.33195657 -113.0859375 104.7734375 C-110 103 -110 103 -108 103 C-108.05800781 104.18335938 -108.11601562 105.36671875 -108.17578125 106.5859375 C-108.65533055 119.56437735 -108.65533055 119.56437735 -103 131 C-96.40227107 137.8976257 -88.09326657 140.550013 -78.7734375 141.23828125 C-68.17110572 141.46982643 -59.3217183 140.11964983 -50.9375 133.25 C-44.63636912 127.05141917 -43.4684095 120.62012722 -42.93359375 111.96484375 C-43.08797947 105.07197523 -45.75057967 99.37426689 -50 94 C-52.6091387 91.67722584 -52.6091387 91.67722584 -55 90 C-55.70125 90.66 -56.4025 91.32 -57.125 92 C-60 94 -60 94 -62.875 94.625 C-66.2546112 93.94907776 -67.05598853 93.27174635 -69.5 91 C-71.88777039 88.79590426 -72.81482883 88.04534804 -76.0625 87.25 C-79.75915284 88.19382626 -80.93845969 89.88497612 -83.41796875 92.65234375 C-85 94 -85 94 -88.75 94.5625 C-90.35875 94.2840625 -90.35875 94.2840625 -92 94 C-92.66 93.01 -93.32 92.02 -94 91 C-93.34644531 90.34257812 -93.34644531 90.34257812 -92.6796875 89.671875 C-82.85622836 79.21052891 -78.47216235 67.17625768 -78.68359375 52.92578125 C-79.3792307 44.29473023 -82.02726897 36.54899214 -87.046875 29.48828125 C-88 28 -88 28 -88 26 C-69.697601 25.64875821 -52.11614135 25.98363553 -34 29 C-36.31 28.01 -38.62 27.02 -41 26 C-39.35712729 24.3041314 -37.6931995 22.64516547 -36 21 C-35.10474609 20.12794922 -35.10474609 20.12794922 -34.19140625 19.23828125 C-29.53267804 14.89659315 -24.59750661 11.21536811 -19.3125 7.6875 C-18.6829541 7.26702393 -18.0534082 6.84654785 -17.40478516 6.41333008 C-6.1901733 -0.93066054 -6.1901733 -0.93066054 0 0 Z " fill="#FDFDFC" transform="translate(334,82)"/>
<path d="M0 0 C4.30918285 0.6308603 7.34293737 2.28768926 11.05859375 4.484375 C11.7637915 4.89228271 12.46898926 5.30019043 13.19555664 5.72045898 C19.00262492 9.15151558 24.24907356 13.01906444 29.30859375 17.484375 C30.59830078 18.61166016 30.59830078 18.61166016 31.9140625 19.76171875 C34.05960875 21.65445645 36.1906686 23.56084877 38.30859375 25.484375 C36.08669551 27.70627324 34.22376667 28.41036392 31.30859375 29.484375 C32.07526367 29.39349609 32.84193359 29.30261719 33.63183594 29.20898438 C37.10714427 28.79839054 40.58285915 28.39134393 44.05859375 27.984375 C45.8684375 27.76974609 45.8684375 27.76974609 47.71484375 27.55078125 C48.875 27.41542969 50.03515625 27.28007813 51.23046875 27.140625 C52.2987793 27.01494141 53.36708984 26.88925781 54.46777344 26.75976562 C57.30859375 26.484375 57.30859375 26.484375 61.30859375 26.484375 C70.24412507 37.49525553 72.58798705 50.68728131 71.30859375 64.484375 C69.11279129 75.31961451 63.19916152 84.03738512 56.30859375 92.484375 C57.45425318 93.83149659 57.45425318 93.83149659 60.49609375 93.921875 C64.56648989 93.45478036 64.8562369 93.31192569 67.37109375 90.484375 C69.48807888 88.1321693 70.05416899 87.54933451 73.24609375 86.734375 C77.07177425 87.67127635 78.75169642 89.50197264 81.58203125 92.1328125 C83.36848944 93.74010765 83.36848944 93.74010765 86.43359375 94.109375 C89.93041845 93.34919572 91.72675627 91.91433969 94.30859375 89.484375 C101.72937089 95.2480854 105.941363 100.27507706 107.24609375 109.734375 C107.68605211 117.86796422 106.32805558 125.58743823 101.05859375 131.984375 C93.6853602 139.43473442 84.6608604 142.62972322 74.30859375 142.796875 C64.20692699 142.53646683 55.22270218 140.88309272 47.515625 133.84765625 C40.61482848 126.26529957 39.98710168 119.71587809 40.10546875 109.8125 C40.30859375 106.484375 40.30859375 106.484375 41.30859375 103.484375 C39.76751953 104.28101563 39.76751953 104.28101563 38.1953125 105.09375 C17.60385901 115.64004474 -5.99946269 122.50834504 -29.09765625 115.5390625 C-33.59075039 113.71205133 -37.90206911 111.53491056 -41.69140625 108.484375 C-42.69140625 105.484375 -42.69140625 105.484375 -41.609375 102.953125 C-36.67860875 94.49402262 -30.9649258 86.0000547 -22.69140625 80.484375 C-22.40014636 77.84770651 -22.27923953 75.37635431 -22.25390625 72.734375 C-21.90178487 61.76029926 -19.922147 51.21317576 -17.69140625 40.484375 C-17.45421875 39.329375 -17.21703125 38.174375 -16.97265625 36.984375 C-15.31568219 29.72525056 -12.69564534 22.87536176 -9.99609375 15.953125 C-8.70607467 12.73013212 -8.70607467 12.73013212 -8.1484375 10.28125 C-7.57690217 8.03418802 -6.65459715 6.24529114 -5.50390625 4.234375 C-5.11847656 3.52796875 -4.73304688 2.8215625 -4.3359375 2.09375 C-2.69140625 0.484375 -2.69140625 0.484375 0 0 Z " fill="#EDAF7C" transform="translate(184.69140625,81.515625)"/>
<path d="M0 0 C1.04285156 -0.02900391 2.08570313 -0.05800781 3.16015625 -0.08789062 C13.83065007 -0.17448015 23.25591901 3.2609278 31.375 10.3125 C39.6023037 19.81158157 40.67817058 27.83438262 40.5703125 40.02734375 C40.5674826 41.23822159 40.56465271 42.44909943 40.56173706 43.69667053 C40.5505803 47.54788268 40.52548355 51.39885864 40.5 55.25 C40.4899644 57.86783517 40.48083956 60.48567401 40.47265625 63.10351562 C40.45236098 69.50667368 40.41320258 75.90932377 40.375 82.3125 C31.135 82.3125 21.895 82.3125 12.375 82.3125 C11.715 79.3425 11.055 76.3725 10.375 73.3125 C9.34375 74.240625 8.3125 75.16875 7.25 76.125 C0.65536932 82.06016761 -5.13614534 82.86003187 -13.796875 82.65625 C-23.18136249 81.81356133 -30.32484678 78.31585939 -36.625 71.3125 C-43.86709263 62.387519 -44.90177443 52.38558776 -45.0625 41.25 C-45.08481689 40.32815918 -45.10713379 39.40631836 -45.13012695 38.45654297 C-45.09727198 28.48461447 -41.62750203 19.67765677 -34.79296875 12.34765625 C-24.74110042 2.62179446 -13.48273813 0.12227392 0 0 Z " fill="#FCFCFC" transform="translate(122.625,288.6875)"/>
<path d="M0 0 C9.83838086 5.78325692 16.49900574 14.51507493 20.08203125 25.23828125 C23.26690436 38.28948468 21.25995666 52.37976531 14.3125 63.875 C7.83765046 72.71909274 -1.41899852 77.68362841 -12 80 C-21.85978788 80.74541352 -32.91335673 81.33792735 -42 77 C-42.84691406 76.5978125 -43.69382812 76.195625 -44.56640625 75.78125 C-54.00312158 70.71833268 -58.86464874 63.67983522 -62.2734375 53.67578125 C-65.92752449 40.21852541 -65.11839026 24.84847081 -58.25 12.5625 C-53.61339694 5.51623377 -47.75487681 1.1889213 -40 -2 C-38.72189453 -2.53753906 -38.72189453 -2.53753906 -37.41796875 -3.0859375 C-25.94280006 -6.15472547 -10.55142517 -5.52448602 0 0 Z " fill="#FCFCFC" transform="translate(368,292)"/>
<path d="M0 0 C0 10.56 0 21.12 0 32 C-8 31 -8 31 -10 30 C-12.87910588 29.76725791 -15.74146495 29.58027243 -18.625 29.4375 C-19.82769531 29.37272461 -19.82769531 29.37272461 -21.0546875 29.30664062 C-23.0362511 29.20048543 -25.01810271 29.09973145 -27 29 C-26.67 29.66 -26.34 30.32 -26 31 C-24.03278512 31.34715557 -22.04894411 31.6015707 -20.0625 31.8125 C-12.36152774 32.89571368 -5.95092944 34.97709667 -0.4375 40.625 C3.14241358 46.53963982 2.64729963 53.30881278 2 60 C-0.4043915 67.1034305 -4.56696078 71.24982314 -11.1875 74.625 C-18.82112334 77.66040101 -26.91742981 78.38888233 -35.0625 78.375 C-36.41516968 78.3747583 -36.41516968 78.3747583 -37.79516602 78.37451172 C-48.76881979 78.19108652 -58.63611734 75.45462755 -69 72 C-69 62.43 -69 52.86 -69 43 C-65.37 43.99 -61.74 44.98 -58 46 C-55.0838476 46.46568787 -52.23974158 46.88099728 -49.3125 47.1875 C-48.24225586 47.3102832 -48.24225586 47.3102832 -47.15039062 47.43554688 C-45.43444687 47.63132569 -43.71733718 47.8168461 -42 48 C-42.33 47.01 -42.66 46.02 -43 45 C-43.60585938 44.90203125 -44.21171875 44.8040625 -44.8359375 44.703125 C-53.74418847 43.11334483 -62.22838541 41.34461953 -67.8828125 33.7734375 C-71.52933823 27.98489666 -71.86858739 21.6682178 -71 15 C-68.45865553 7.09233439 -64.01374412 1.67916567 -56.7265625 -2.21484375 C-39.22688056 -10.38329994 -17.3082285 -6.9232914 0 0 Z " fill="#FCFCFC" transform="translate(466,294)"/>
<path d="M0 0 C1.12599609 -0.03738281 2.25199219 -0.07476562 3.41210938 -0.11328125 C12.80450308 -0.21049982 21.24517569 1.95085591 28.9375 7.5625 C40.07949331 19.50034998 40.5625 31.12369905 40.5625 47.375 C28.6825 48.035 16.8025 48.695 4.5625 49.375 C4.0675 45.91 4.0675 45.91 3.5625 42.375 C1.56295254 42.33245644 -0.43791636 42.33419217 -2.4375 42.375 C-3.87994751 43.5974093 -3.87994751 43.5974093 -3.6875 47.25 C-3.66871082 50.51601688 -3.66871082 50.51601688 -2.0625 53.3125 C3.97889403 57.26264225 14.07345669 56.06478787 20.9609375 54.703125 C22.79333707 54.18238946 24.61720218 53.62949361 26.42578125 53.03125 C28.5625 52.375 28.5625 52.375 31.5625 52.375 C31.5625 59.965 31.5625 67.555 31.5625 75.375 C16.7206734 82.49301888 -0.02500465 85.78241843 -16.3125 80.75 C-21.31856928 78.70010094 -25.46580668 76.03431295 -29.4375 72.375 C-30.25154297 71.67503906 -30.25154297 71.67503906 -31.08203125 70.9609375 C-38.09203951 64.03966352 -40.60716411 53.38790602 -40.87866211 43.81201172 C-40.85678233 30.7454095 -39.28779494 19.61189893 -30.3125 9.625 C-21.7570714 1.52184075 -11.20803243 0.136911 0 0 Z " fill="#FCFCFC" transform="translate(257.4375,288.625)"/>
<path d="M0 0 C11.22 0 22.44 0 34 0 C34.49913185 19.21211967 34.49913185 19.21211967 34.7109375 27.57226562 C34.85397174 33.21725254 34.99761293 38.86221814 35.14550781 44.50708008 C35.68193803 65.01157219 36.12988281 85.48663337 36 106 C23.13 106 10.26 106 -3 106 C-1.34655689 23.46856287 -1.34655689 23.46856287 0 0 Z " fill="#FDFDFD" transform="translate(35,265)"/>
<path d="M0 0 C5.90567254 1.47641813 8.38966977 5.01678521 11.75 9.9375 C19.33226557 22.80437492 24.38582546 37.04966948 29.75 50.9375 C30.06630371 51.73671875 30.38260742 52.5359375 30.70849609 53.359375 C31.88086666 56.36679019 32.75 58.67892178 32.75 61.9375 C32.20214844 61.8653125 31.65429688 61.793125 31.08984375 61.71875 C23.30410471 60.80724884 15.58105113 60.755785 7.75 60.9375 C6.92371094 60.95425781 6.09742188 60.97101563 5.24609375 60.98828125 C-5.56216822 61.68494639 -14.83679823 66.82255469 -23.203125 73.36328125 C-25.25 74.9375 -25.25 74.9375 -26.25 74.9375 C-27.45117188 67.73046875 -28.65234375 60.5234375 -29.85351562 53.31640625 C-29.98391235 52.5343985 -30.11430908 51.75239075 -30.24865723 50.94668579 C-30.51354937 49.35657737 -30.77795011 47.76638701 -31.04187012 46.17611694 C-31.71825076 42.10445221 -32.40353045 38.03462765 -33.10546875 33.96728516 C-33.24313156 33.16217499 -33.38079437 32.35706482 -33.52262878 31.52755737 C-33.78275732 30.00758598 -34.04581753 28.48811203 -34.31245422 26.9692688 C-36.90199835 11.75986453 -36.90199835 11.75986453 -33.91015625 6.6484375 C-32.25 4.9375 -32.25 4.9375 -29.3125 4.4375 C-25.67006964 5.03218251 -24.53831231 6.12111562 -22.25 8.9375 C-21.940625 7.968125 -21.63125 6.99875 -21.3125 6 C-20.25 2.9375 -20.25 2.9375 -19.25 1.9375 C-16.24948871 1.51882401 -14.12475307 1.372761 -11.51953125 3.0546875 C-10.04717534 4.29272549 -8.64301441 5.61081961 -7.25 6.9375 C-6.734375 5.9475 -6.21875 4.9575 -5.6875 3.9375 C-3.25 0.9375 -3.25 0.9375 0 0 Z " fill="#EDAE7C" transform="translate(331.25,214.0625)"/>
<path d="M0 0 C11.55 0 23.1 0 35 0 C35.28960303 7.21421831 35.5758764 14.42843375 35.85449219 21.64306641 C35.94968522 24.08454399 36.04662015 26.52595443 36.14550781 28.96728516 C36.83358649 45.99372176 37.09500422 62.95861861 37 80 C24.13 80 11.26 80 -2 80 C-2.08015081 61.96606825 -2.01156389 43.9651838 -1.5625 25.9375 C-1.5330278 24.67726517 -1.5330278 24.67726517 -1.50296021 23.39157104 C-1.4454666 20.97834726 -1.38202422 18.56535891 -1.31640625 16.15234375 C-1.29968872 15.4452124 -1.28297119 14.73808105 -1.26574707 14.00952148 C-1.12482087 9.24023735 -0.59763028 4.78104222 0 0 Z " fill="#FEFEFE" transform="translate(173,291)"/>
<path d="M0 0 C3.8256805 0.93690135 5.50560267 2.76759764 8.3359375 5.3984375 C10.12239569 7.00573265 10.12239569 7.00573265 13.1875 7.375 C16.6843247 6.61482072 18.48066252 5.17996469 21.0625 2.75 C28.48327714 8.5137104 32.69526925 13.54070206 34 23 C34.43995836 31.13358922 33.08196183 38.85306323 27.8125 45.25 C20.43926645 52.70035942 11.41476665 55.89534822 1.0625 56.0625 C-9.03916676 55.80209183 -18.02339157 54.14871772 -25.73046875 47.11328125 C-32.47457151 39.70309426 -33.49820863 33.31248256 -33.29296875 23.421875 C-32.52146579 15.45250379 -28.90478178 9.13385799 -22.8125 3.9375 C-20.9375 2.75 -20.9375 2.75 -18.9375 2.75 C-18.545625 3.41 -18.15375 4.07 -17.75 4.75 C-16.00227479 7.08289877 -16.00227479 7.08289877 -12.625 7.375 C-8.18293158 6.62210705 -7.27568119 5.30631243 -4.3984375 2.109375 C-2.9375 0.75 -2.9375 0.75 0 0 Z " fill="#060404" transform="translate(257.9375,168.25)"/>
<path d="M0 0 C2.9375 0.5625 2.9375 0.5625 5.3125 2.9375 C6.9375 5.5625 6.9375 5.5625 6.9375 7.5625 C7.37320313 7.129375 7.80890625 6.69625 8.2578125 6.25 C13.18278302 1.64483276 13.18278302 1.64483276 17.375 1.1875 C18.6434375 1.373125 18.6434375 1.373125 19.9375 1.5625 C20.9275 3.5425 21.9175 5.5225 22.9375 7.5625 C23.30875 7.0675 23.68 6.5725 24.0625 6.0625 C25.9375 4.5625 25.9375 4.5625 28.9375 4.1875 C31.9375 4.5625 31.9375 4.5625 33.75 5.9375 C37.26894358 10.75289647 36.21435009 16.48469433 35.46484375 22.10986328 C34.824914 26.12200145 34.14194688 30.1238363 33.4375 34.125 C33.19593119 35.52917948 32.95504036 36.93347577 32.71484375 38.33789062 C32.13020402 41.7474756 31.53641236 45.1553895 30.9375 48.5625 C27.10644531 43.79736328 27.10644531 43.79736328 25.5859375 41.68359375 C21.6296514 36.45304372 17.31505335 34.01778063 10.9375 32.5625 C3.23232034 31.63542958 -3.54798032 31.63769701 -10.1640625 36.015625 C-17.58763381 42.06446088 -20.76338501 48.60966182 -21.75 58.0625 C-21.86514916 59.56169691 -21.97330333 61.06153543 -22.0625 62.5625 C-23.0525 62.5625 -24.0425 62.5625 -25.0625 62.5625 C-25.0625 65.5325 -25.0625 68.5025 -25.0625 71.5625 C-28.52175163 70.3133258 -31.20943203 68.88722205 -34.0625 66.5625 C-33.38831491 60.93813398 -31.56870387 55.90919613 -29.625 50.625 C-29.27445557 49.67004639 -28.92391113 48.71509277 -28.56274414 47.73120117 C-11.55660337 2.12264144 -11.55660337 2.12264144 0 0 Z " fill="#FAFAFA" transform="translate(185.0625,214.4375)"/>
<path d="M0 0 C0.495 0.99 0.495 0.99 1 2 C0.36328125 3.890625 0.36328125 3.890625 -0.6875 6.25 C-6.86715392 21.13638282 -12.1753101 40.09975343 -12 56.33984375 C-11.91654996 68.45705105 -11.91654996 68.45705105 -14.75 72.4921875 C-17 74.3125 -17 74.3125 -19.44140625 76.01171875 C-22.64313309 78.49977824 -24.67445339 81.29334427 -26.9375 84.625 C-27.66839844 85.68976563 -28.39929688 86.75453125 -29.15234375 87.8515625 C-30.92309532 90.86895312 -32.0384632 93.64720677 -33 97 C-32.51402344 97.4125 -32.02804688 97.825 -31.52734375 98.25 C-29.6956375 100.34873248 -29.64807778 101.26151096 -29.5625 104 C-28.41373198 117.39506867 -20.87454494 129.20595238 -11 138 C-13.16163513 144.93998648 -15.8936214 151.43117569 -19 158 C-30.37983309 149.40706481 -36.84912036 136.01330673 -39 122 C-40.36169719 103.27108294 -34.34249781 86.08137066 -22.3828125 71.57421875 C-21.61115712 70.69575232 -20.82678754 69.82678754 -20 69 C-19.82225817 66.99130322 -19.65056927 64.98191015 -19.50732422 62.97045898 C-17.84419801 40.81419992 -11.33953202 19.15120963 0 0 Z " fill="#F6CACA" transform="translate(176,92)"/>
<path d="M0 0 C1.25425781 0.00902344 2.50851562 0.01804688 3.80078125 0.02734375 C4.75339844 0.03894531 5.70601563 0.05054688 6.6875 0.0625 C7.18850016 7.82800253 6.25067946 14.64869415 1.21484375 20.88671875 C-6.57089681 28.19390316 -15.38517347 29.60998373 -25.67651367 29.54833984 C-31.78929339 29.33824325 -36.93617824 28.08836953 -42.3125 25.0625 C-38.64810531 15.12113294 -30.52591418 9.06474745 -21.17578125 4.546875 C-13.83646532 1.4053228 -8.01800136 -0.07493459 0 0 Z " fill="#EB5252" transform="translate(280.3125,189.9375)"/>
<path d="M0 0 C2.67167393 3.14676238 4.64320308 5.9585828 6.125 9.8125 C6.43695313 10.60269531 6.74890625 11.39289063 7.0703125 12.20703125 C9.38701318 19.16686733 10.32030025 25.20049053 10.25 32.5 C10.25773437 33.30308594 10.26546875 34.10617188 10.2734375 34.93359375 C10.22443706 50.05022803 3.77052772 63.12899132 -6.71875 73.75390625 C-7.4715625 74.49511719 -8.224375 75.23632812 -9 76 C-10.10557592 73.64648632 -11.20948982 71.2922159 -12.3125 68.9375 C-12.62123047 68.28072266 -12.92996094 67.62394531 -13.24804688 66.94726562 C-15.2518979 62.66535239 -17.15957624 58.35472575 -19 54 C-18.319375 53.690625 -17.63875 53.38125 -16.9375 53.0625 C-10.33594102 48.42736284 -6.13617478 41.31101839 -3 34 C-2.72921631 33.37295166 -2.45843262 32.74590332 -2.17944336 32.09985352 C0.38921602 25.37840709 0.34784582 19.0626102 0.1875 11.9375 C0.17396484 10.78572266 0.16042969 9.63394531 0.14648438 8.44726562 C0.11142725 5.63101028 0.06228856 2.81576235 0 0 Z " fill="#F7CBCB" transform="translate(369,174)"/>
<path d="M0 0 C6.27944911 0.08760392 12.11092425 1.71582303 18 3.75 C19.17248291 4.14662842 19.17248291 4.14662842 20.36865234 4.55126953 C25.9601142 6.49901453 30.97605101 8.83677286 36 12 C35.63257845 14.56850086 35.28369498 15.7408399 33.34008789 17.51635742 C27.28028711 21.41257383 21.054961 24.47768185 14.4375 27.3125 C13.44814453 27.75400391 12.45878906 28.19550781 11.43945312 28.65039062 C5.87472519 31.06164965 1.06235551 32.61794906 -5 33 C-4.25 28.25 -4.25 28.25 -2 26 C-2.66 25.67 -3.32 25.34 -4 25 C-3.63654389 22.53481944 -3.45310469 21.34033539 -1.41772461 19.81152344 C-0.75264893 19.49731445 -0.08757324 19.18310547 0.59765625 18.859375 C1.31630859 18.51132813 2.03496094 18.16328125 2.77539062 17.8046875 C3.53013672 17.45664063 4.28488281 17.10859375 5.0625 16.75 C5.82111328 16.38648438 6.57972656 16.02296875 7.36132812 15.6484375 C9.23486161 14.75291206 11.11668803 13.87477399 13 13 C12.01257813 12.72285156 11.02515625 12.44570312 10.0078125 12.16015625 C8.71351203 11.79437568 7.41924281 11.42848451 6.125 11.0625 C5.47402344 10.88009766 4.82304687 10.69769531 4.15234375 10.50976562 C-0.7734375 9.11328125 -0.7734375 9.11328125 -3 8 C-3 7.34 -3 6.68 -3 6 C-2.01 5.67 -1.02 5.34 0 5 C-0.2784375 4.0409375 -0.2784375 4.0409375 -0.5625 3.0625 C-0.706875 2.381875 -0.85125 1.70125 -1 1 C-0.67 0.67 -0.34 0.34 0 0 Z " fill="#060403" transform="translate(197,146)"/>
<path d="M0 0 C0 4 0 4 -1 6 C-0.01 6 0.98 6 2 6 C2 6.66 2 7.32 2 8 C-0.08108685 8.67364661 -2.1649671 9.33866798 -4.25 10 C-5.41015625 10.37125 -6.5703125 10.7425 -7.765625 11.125 C-11 12 -11 12 -15 12 C-15 12.66 -15 13.32 -15 14 C-14.30261719 14.10699219 -13.60523438 14.21398437 -12.88671875 14.32421875 C-9.58585222 15.09695205 -6.85480169 16.31969358 -3.8125 17.8125 C-2.76707031 18.31394531 -1.72164063 18.81539062 -0.64453125 19.33203125 C2.07795775 21.0491698 2.94546933 22.01755436 4 25 C3.01 25.33 2.02 25.66 1 26 C1.495 26.4125 1.99 26.825 2.5 27.25 C4 29 4 29 4 33 C-2.84148536 32.48567557 -8.65639492 29.9537259 -14.9375 27.3125 C-15.98357422 26.89033203 -17.02964844 26.46816406 -18.10742188 26.03320312 C-33.73383165 19.52138057 -33.73383165 19.52138057 -37 12 C-29.70175132 8.04298079 -22.48330517 4.57367892 -14.5625 2.0625 C-13.91345703 1.85149658 -13.26441406 1.64049316 -12.59570312 1.4230957 C-8.30162902 0.12551459 -4.46956757 -0.19031707 0 0 Z " fill="#060606" transform="translate(320,146)"/>
<path d="M0 0 C15.90869984 7.27449095 22.2677802 35.15930148 28 50 C28.47445557 51.19882812 28.47445557 51.19882812 28.95849609 52.421875 C30.13086666 55.42929019 31 57.74142178 31 61 C24.73 60.34 18.46 59.68 12 59 C11.9175 55.9475 11.835 52.895 11.75 49.75 C11.10992876 34.09779627 8.28274116 19.38192108 2 5 C1.32861125 3.33522994 0.66039437 1.66916192 0 0 Z " fill="#E99270" transform="translate(333,215)"/>
<path d="M0 0 C4.62504462 1.72305584 7.59171337 3.64655879 10 8 C10.81979599 13.00242862 10.54823991 16.84026173 8.375 21.4375 C4.75662327 25.34153805 1.77129163 26.77858855 -3.5 27.4375 C-7.76506 26.9043675 -9.75593838 25.80168958 -13 23 C-15.9224897 18.61626546 -16.559524 15.22222401 -16 10 C-13.281663 2.29804517 -8.11223265 -1.01402908 0 0 Z " fill="#F8F8F8" transform="translate(193,259)"/>
<path d="M0 0 C0.609375 1.77734375 0.609375 1.77734375 1 4 C0.06415965 5.90510358 -0.88023874 7.80675397 -1.87890625 9.6796875 C-4.98293223 16.10404789 -6.06677807 22.61070848 -6.3125 29.6875 C-6.61918362 35.31447778 -7.91848949 38.11418886 -11.5703125 42.31640625 C-15.69107766 47.16900129 -15.54418177 53.93042048 -16 60 C-16.99 60 -17.98 60 -19 60 C-19 62.97 -19 65.94 -19 69 C-22.45925163 67.7508258 -25.14693203 66.32472205 -28 64 C-27.32581491 58.37563398 -25.50620387 53.34669613 -23.5625 48.0625 C-23.21195557 47.10754639 -22.86141113 46.15259277 -22.50024414 45.16870117 C-9.02225923 9.02225923 -9.02225923 9.02225923 0 0 Z " fill="#F0C5C5" transform="translate(179,217)"/>
<path d="M0 0 C0.495 0.99 0.495 0.99 1 2 C0.36328125 3.890625 0.36328125 3.890625 -0.6875 6.25 C-6.86715392 21.13638282 -12.1753101 40.09975343 -12 56.33984375 C-11.91654996 68.45705105 -11.91654996 68.45705105 -14.75 72.4921875 C-17 74.3125 -17 74.3125 -19.4453125 76.01171875 C-22.63919057 78.49747401 -24.63472922 81.28839671 -26.875 84.625 C-27.59429687 85.68976563 -28.31359375 86.75453125 -29.0546875 87.8515625 C-30.89645612 90.83241694 -32.49103181 93.83970813 -34 97 C-35.28652007 94.03954189 -34.9793437 92.94543746 -33.8125 89.86328125 C-29.96221871 82.32038105 -26.0607134 75.0607134 -20 69 C-19.82225817 66.99130322 -19.65056927 64.98191015 -19.50732422 62.97045898 C-17.84419801 40.81419992 -11.33953202 19.15120963 0 0 Z " fill="#F5F3F2" transform="translate(176,92)"/>
<path d="M0 0 C2.27599624 2.27599624 2.37585827 3.05486806 2.8515625 6.140625 C2.98046875 6.96433594 3.109375 7.78804688 3.2421875 8.63671875 C3.36851562 9.49910156 3.49484375 10.36148437 3.625 11.25 C3.7590625 12.09691406 3.893125 12.94382812 4.03125 13.81640625 C4.70736415 18.25254294 5.16183479 22.49805026 5 27 C4.53851563 26.62488281 4.07703125 26.24976563 3.6015625 25.86328125 C-3.25360589 20.4848191 -10.59607468 16.43271522 -19 14 C-18.67 13.34 -18.34 12.68 -18 12 C-19.65 11.67 -21.3 11.34 -23 11 C-20.26632529 8.81360479 -17.68588702 7.28945343 -14.453125 5.95703125 C-13.18662109 5.43012695 -13.18662109 5.43012695 -11.89453125 4.89257812 C-11.02183594 4.53615234 -10.14914062 4.17972656 -9.25 3.8125 C-8.36183594 3.44447266 -7.47367187 3.07644531 -6.55859375 2.69726562 C-4.374442 1.79307377 -2.1882624 0.89418683 0 0 Z " fill="#F5F3F3" transform="translate(294,263)"/>
<path d="M0 0 C1.65 0.99 3.3 1.98 5 3 C6.37543875 3.61951974 7.76628288 4.20623184 9.171875 4.75390625 C9.91824219 5.05103516 10.66460937 5.34816406 11.43359375 5.65429688 C12.99273637 6.26559647 14.55264875 6.874936 16.11328125 7.48242188 C21.89505109 9.79010219 21.89505109 9.79010219 23 12 C22.01 12.33 21.02 12.66 20 13 C19.01 14.485 19.01 14.485 18 16 C15.64453125 17.02734375 15.64453125 17.02734375 12.8125 17.9375 C8.14280413 19.5288832 4.18128027 21.3983145 0 24 C0 21.03 0 18.06 0 15 C-0.66 15 -1.32 15 -2 15 C-1.34 10.05 -0.68 5.1 0 0 Z " fill="#F2EFEF" transform="translate(221,262)"/>
<path d="M0 0 C0.53625 0.226875 1.0725 0.45375 1.625 0.6875 C1.00753906 1.16058594 0.39007813 1.63367188 -0.24609375 2.12109375 C-10.63307625 10.23147735 -18.74096267 19.02150458 -26.375 29.6875 C-30.005 28.3675 -33.635 27.0475 -37.375 25.6875 C-35.73212729 23.9916314 -34.0681995 22.33266547 -32.375 20.6875 C-31.77816406 20.10613281 -31.18132812 19.52476563 -30.56640625 18.92578125 C-25.90767804 14.58409315 -20.97250661 10.90286811 -15.6875 7.375 C-15.0579541 6.95452393 -14.4284082 6.53404785 -13.77978516 6.10083008 C-3.71674238 -0.48904505 -3.71674238 -0.48904505 0 0 Z " fill="#F1C5C5" transform="translate(330.375,82.3125)"/>
<path d="M0 0 C4.70386999 1.3910835 8.80982701 3.36344208 13 5.875 C13.64283936 6.25994629 14.28567871 6.64489258 14.94799805 7.04150391 C22.86090107 11.94350727 31.79757116 18.19635674 37 26 C33.7 27.32 30.4 28.64 27 30 C26.443125 29.31035156 25.88625 28.62070313 25.3125 27.91015625 C22.89018926 24.92727698 20.45011686 21.96007858 18 19 C17.33097656 18.19046875 16.66195312 17.3809375 15.97265625 16.546875 C11.71552406 11.5671621 7.16025129 7.54566926 1.90625 3.62890625 C1.2771875 3.09136719 0.648125 2.55382812 0 2 C0 1.34 0 0.68 0 0 Z " fill="#E9916E" transform="translate(186,82)"/>
<path d="M0 0 C6.94241357 7.85933611 8.13573045 17.58573953 8.3125 27.6875 C8.46645279 34.68649096 10.01249081 38.83220021 14.27734375 44.55078125 C16.81536214 48.15925637 17.82246029 51.77471045 19 56 C14.81887054 51.94648131 11.14357227 47.63380075 7.48632812 43.109375 C5.11410776 40.11841099 5.11410776 40.11841099 2 38 C1.97494385 37.31075439 1.9498877 36.62150879 1.92407227 35.91137695 C1.29940313 17.93582361 1.29940313 17.93582361 0 0 Z " fill="#171414" transform="translate(330,96)"/>
<path d="M0 0 C1.42951048 2.85902095 0.63191624 4.67512817 0.0625 7.8125 C-0.84046997 13.37410483 -0.97988331 18.46391971 -0.73461914 24.0871582 C-0.27884232 35.67850686 -0.27884232 35.67850686 -2.4921875 39.734375 C-4.5 41.625 -4.5 41.625 -6.6875 43.2265625 C-9.59631985 45.45731286 -11.39207349 48.01126134 -13.5 51 C-14.1703125 51.94875 -14.840625 52.8975 -15.53125 53.875 C-16.0159375 54.57625 -16.500625 55.2775 -17 56 C-18 53 -18 53 -16.671875 49.75 C-16.04159227 48.49475338 -15.40050459 47.24488721 -14.75 46 C-14.43675781 45.3709375 -14.12351563 44.741875 -13.80078125 44.09375 C-11.34638567 39.28680098 -11.34638567 39.28680098 -9.296875 37.58984375 C-6.9967388 34.77009847 -7.54979763 31.05764883 -7.5 27.5625 C-7.14789436 17.64799856 -6.43535202 7.98871285 0 0 Z " fill="#0D0906" transform="translate(185,96)"/>
<path d="M0 0 C1.18485346 3.55456037 0.41893315 5.40203666 -0.4765625 8.9375 C-1.03732995 12.21840806 -1.12911761 15.33982957 -1.19506836 18.66015625 C-1.47916353 31.08458508 -1.47916353 31.08458508 -6.43359375 36.25390625 C-9.19372085 39.33065641 -10.50117048 43.19120968 -12 47 C-12.33 47 -12.66 47 -13 47 C-13.19120354 40.85316027 -12.54165131 35.26810502 -11.3125 29.25 C-11.13460937 28.37255127 -10.95671875 27.49510254 -10.7734375 26.59106445 C-8.7112319 16.94403111 -5.15385389 8.39887301 0 0 Z " fill="#E9916E" transform="translate(180,102)"/>
<path d="M0 0 C3 1 3 1 4.5 3.58984375 C10.5610212 17.11665409 14.24749533 30.01701349 14 45 C11.57419195 41.36128792 9.58776184 37.5498848 7.53515625 33.69140625 C6.14108362 31.02541719 6.14108362 31.02541719 4.34375 29.16015625 C2.32647401 25.91726781 2.51171193 22.58600183 2.4375 18.875 C2.19521425 12.40921475 1.59350319 6.29665823 0 0 Z " fill="#F5C9C9" transform="translate(335,105)"/>
<path d="M0 0 C2.4375 1.5625 2.4375 1.5625 4 4 C4.56288002 7.94016013 4.60396028 10.05782196 2.4375 13.4375 C-0.96719488 15.61999672 -3.03430012 15.63734462 -7 15 C-9.96135546 12.41830549 -10.86756104 10.81118865 -11.5 6.9375 C-11 4 -11 4 -9.4375 1.625 C-6.06489221 -0.62340519 -3.97487617 -0.56783945 0 0 Z " fill="#080808" transform="translate(350,330)"/>
<path d="M0 0 C0.33 0 0.66 0 1 0 C1.38860818 16.58061553 1.38860818 16.58061553 -1 23 C-1.33 23.93328125 -1.66 24.8665625 -2 25.828125 C-5.55811168 35.14475954 -10.77279628 42.21080862 -18 49 C-19.28125 46.875 -19.28125 46.875 -20 44 C-18.58550346 41.71695295 -17.26322515 39.97966082 -15.5 38 C-6.45701009 27.08485915 -1.30553028 14.09972702 0 0 Z " fill="#F5F3F3" transform="translate(378,201)"/>
<path d="M0 0 C2.4375 1.5625 2.4375 1.5625 4 4 C4.42213381 7.43737531 4.60856522 9.82090489 3 12.9375 C-0.24370507 14.66071832 -3.4161041 14.52265149 -7 14 C-9 13 -9 13 -10 11 C-10.52265149 7.4161041 -10.66071832 4.24370507 -8.9375 1 C-5.82090489 -0.60856522 -3.43737531 -0.42213381 0 0 Z " fill="#040404" transform="translate(122,330)"/>
<path d="M0 0 C2 2 2 2 3 11 C-5.58 11 -14.16 11 -23 11 C-19.91651718 8.68738789 -17.88067285 7.36973678 -14.453125 5.95703125 C-13.18662109 5.43012695 -13.18662109 5.43012695 -11.89453125 4.89257812 C-11.02183594 4.53615234 -10.14914062 4.17972656 -9.25 3.8125 C-8.36183594 3.44447266 -7.47367187 3.07644531 -6.55859375 2.69726562 C-4.374442 1.79307377 -2.1882624 0.89418683 0 0 Z " fill="#F8CBCB" transform="translate(294,263)"/>
<path d="M0 0 C2.20895116 3.31342675 3.04382089 6.19033854 4.1875 10 C6.98451776 18.80428531 11.20426206 26.06800724 17.5 32.875 C20.01546031 35.63668262 20.01546031 35.63668262 19.875 38.9375 C19.441875 39.9584375 19.441875 39.9584375 19 41 C8.71742964 33.23561014 3.16248024 22.37925824 0 10 C-0.33196015 6.60804825 -0.3512943 3.38803839 0 0 Z " fill="#F6F4F4" transform="translate(138,209)"/>
<path d="M0 0 C1.65 0.99 3.3 1.98 5 3 C6.37543875 3.61951974 7.76628288 4.20623184 9.171875 4.75390625 C9.91824219 5.05103516 10.66460937 5.34816406 11.43359375 5.65429688 C12.99273637 6.26559647 14.55264875 6.874936 16.11328125 7.48242188 C21.89505109 9.79010219 21.89505109 9.79010219 23 12 C15.08 12 7.16 12 -1 12 C-0.67 8.04 -0.34 4.08 0 0 Z " fill="#F9CCCC" transform="translate(221,262)"/>
<path d="M0 0 C0.54785156 0.16242188 1.09570312 0.32484375 1.66015625 0.4921875 C4.31282363 1.06789161 6.72405462 1.13252689 9.4375 1.125 C10.82775391 1.12886719 10.82775391 1.12886719 12.24609375 1.1328125 C14.92865981 1.00344052 17.38568718 0.59782834 20 0 C16.25 5.875 16.25 5.875 14 7 C6.93812375 7.57884232 6.93812375 7.57884232 3.0625 5.1875 C1 3 1 3 0 0 Z " fill="#FACFCF" transform="translate(250,234)"/>
<path d="M0 0 C1 2 1 2 0.29296875 4.2421875 C-0.07183594 5.11101562 -0.43664062 5.97984375 -0.8125 6.875 C-1.16957031 7.73867187 -1.52664062 8.60234375 -1.89453125 9.4921875 C-2.86758977 11.6996206 -3.89750962 13.85488298 -5 16 C-5.66 16 -6.32 16 -7 16 C-6.40165275 11.85701333 -4.99335715 8.81805623 -2.9375 5.1875 C-2.11572266 3.72376953 -2.11572266 3.72376953 -1.27734375 2.23046875 C-0.85582031 1.49441406 -0.43429688 0.75835937 0 0 Z " fill="#EEE5DF" transform="translate(176,92)"/>
<path d="M0 0 C0.33 0 0.66 0 1 0 C0.67 3.3 0.34 6.6 0 10 C-0.99 10 -1.98 10 -3 10 C-2.49287967 6.28111761 -1.88391785 3.26545761 0 0 Z " fill="#EFE7E7" transform="translate(154,271)"/>
</svg>
